<svg xmlns="http://www.w3.org/2000/svg" viewBox="21 -20.7 141.7 141.7">
    <style type="text/css">
        .st0{fill:#CCCCCC;}
        .st1{fill:none;stroke:#000000;stroke-width:2;stroke-miterlimit:10;}
        .st2{fill:none;stroke:#000000;stroke-width:3;stroke-miterlimit:10;}
        .st3{fill:none;stroke:#000000;stroke-width:4;stroke-miterlimit:10;}
        .st4{fill:none;}
    </style>
    <rect x="21" y="-20.8" class="st0" width="140.8" height="141.7"/>
    <rect x="21" y="-20.8" class="st1" width="140.8" height="141.7"/>
    <line class="st2" x1="158" y1="114.4" x2="158.1" y2="114.4"/>
    <path class="st0"
          d="M156.1 114.2C156.2 114.2 156.2 114.3 156.1 114.2c-0.2-0.4-0.6-0.9-0.9-1.4 0.1 0.2 0.1 0.4 0.1 0.7 0 0.2 0 0.3 0 0 0 0.1 0 0.3 0 0.4 -0.1 1.3 0.9 2.4 2.1 2.6 1 0.2 2.6-0.2 2.7-1.5 0-0.6 0-1.1 0-1.7 -0.1-0.8-0.4-1.5-1.1-2.1 -0.8-0.8-2.6-1-3.4 0C154.8 112.2 155.3 113.4 156.1 114.2L156.1 114.2z"/>
    <polygon class="st3"
             points="41.9 43.5 42.7 42.7 43.9 41.7 45.3 40.7 46.7 40 48.4 39.5 49.3 39.3 50.2 39.2 51.6 39.1 53 39.1 53.9 39.2 54.8 39.4 55.9 39.6 56.8 39.8 57.8 40.2 58.9 40.7 60.2 41.3 61 41.8 61.8 42.3 62.4 42.7 63.1 43.2 63.8 43.8 64.4 44.3 65 44.8 65.6 45.4 66.3 46.2 67.1 47.1 67.7 47.9 68.4 48.6 68.9 49.2 69.7 50 70.5 50.8 70.8 51.1 71.2 50.9 70.8 50 70.2 48.7 69.7 47.4 69.1 46 68.7 44.9 68.4 44.4 68.1 43.8 67.7 43 67.4 42.4 66.9 41.4 66.4 40.5 65.7 39.1 65.1 38.1 64.5 37 64.1 36.1 63.5 35.1 62.8 33.8 62.1 32.5 61.6 31.4 61.1 30.6 60.7 29.7 60.3 28.6 59.5 27 59 25.7 58.5 24.6 58.1 23.5 57.7 22.5 57.3 21.1 56.9 20 56.4 18.7 56.1 17.6 55.8 16.7 55.6 15.2 55.4 13.6 55.4 12.2 55.5 11.5 55.6 10.9 55.8 10.2 56 9.6 56.4 8.7 57 8 57.5 7.6 58.2 7.1 58.8 6.8 59.3 6.7 59.9 6.6 60.2 6.5 60.5 6.5 60.8 6.5 61.4 6.6 61.9 6.7 62.3 6.8 62.7 6.9 63.2 7 63.8 7.2 64.3 7.4 64.9 7.7 65.5 8.1 66 8.5 66.5 8.9 66.9 9.3 67.3 9.7 67.7 10 68 10.4 68.5 10.8 69.2 11.6 69.7 12.1 70.3 12.8 70.8 13.3 71.4 14 72.1 14.8 72.9 15.6 73.7 16.5 74.6 17.5 75.4 18.5 75.9 19.1 76.5 19.8 77.3 21.2 78 22.5 78.8 23.9 79.7 25.6 80.5 27.1 81 27.7 80.8 25.5 80.4 21.2 80.2 19 80.1 17.7 80.1 16.7 80.1 15.7 80.2 14.5 80.2 13.3 80.3 12.4 80.3 11.5 80.4 10.4 80.5 9.6 80.6 8.6 80.8 7.3 81 5.9 81.3 4.3 81.6 3.3 81.8 2.4 82.1 1.5 82.3 0.6 82.9 -1.1 83.4 -2.1 84.2 -3.3 85.1 -4.5 86.3 -5.6 87.1 -6.2 88.1 -6.7 89.4 -7.1 90.8 -7.1 92 -6.7 93 -6.2 94.2 -5.4 95.6 -4.1 96.6 -3 97.2 -2.2 97.9 -1.1 98.4 -0.1 98.9 0.9 99.2 1.9 99.6 3.1 99.9 4.8 100.2 6.5 100.5 8.1 100.6 9.9 100.8 11.8 101 13.2 101.2 14.5 101.3 15.8 101.4 17.2 101.5 18.7 101.6 20 101.7 21.7 101.9 23.2 102.1 24.6 102.1 25.2 102.2 25.3 102.4 25 102.5 24.2 103 20.2 103.6 14.5 104.1 11.5 104.4 10.1 104.8 8.9 105.2 7.7 105.8 6.4 106.8 4.6 108.1 2.2 108.8 1.2 109.4 0.7 110 0.3 111 -0.3 112.3 -0.8 113.4 -1.1 114.6 -1.1 115.6 -0.9 116.2 -0.6 117 -0.2 117.5 0.2 118 0.7 118.4 1.3 118.7 1.8 119 2.5 119.3 3.4 119.7 4.4 120.4 6.7 120.9 9.2 121.4 11.9 121.7 14.7 122.1 18.9 122.4 23.3 122.5 26.4 122.5 28.7 122.5 30.6 122.5 32.6 122.5 32.7 122.9 32.3 123.4 31.7 124.2 30.3 125.2 28.6 126.1 27 126.9 25.4 127.8 23.8 128.2 23 129.1 21.5 129.9 20.4 130.5 19.8 131.4 18.9 132.2 18.3 133.3 17.6 134.7 17.1 135.9 16.6 137 16.4 138.2 16.4 139.2 16.6 139.9 16.8 140.6 17.1 141.1 17.6 141.7 18.1 142.3 18.9 142.6 19.6 142.8 20.1 143 20.9 143.2 21.6 143.3 22 143.3 23.1 143.3 24.2 143.3 25 143.3 25.3 143.1 25.8 142.9 26.7 142.5 28.4 141.7 31.8 140.8 34.7 139.5 38.1 138 41.9 136.3 46.1 135.2 48.7 132.9 54.5 132.3 56.2 132 57.1 131.7 58.2 131.5 59.1 131.3 60.8 130.9 63.1 130.5 65 130.1 66.8 129.7 68.6 129.1 70.6 128.3 73.5 127.5 76.2 126.6 78.8 125.8 80.9 125.1 82.8 124.2 84.6 123.8 85.4 123.2 86.4 122.4 87.6 121.7 88.6 120.9 89.5 120 90.5 118.8 91.6 117.9 92.2 117.1 92.6 116.1 92.9 114.6 93.4 113.1 93.8 111.5 94.1 110.4 94.2 109.3 94.3 108.2 94.3 106.9 94.3 105.9 94.3 104.3 94.2 103.1 94.1 101.2 94 99.5 93.8 97.6 93.6 95.6 93.5 93.7 93.3 88.9 92.7 86.9 92.2 84.9 91.7 81.9 90.7 79.5 89.8 77.5 88.8 75.2 87.5 73.9 86.5 72.5 85.3 70.9 83.6 69.3 81.9 67.8 80 66.4 78.1 64.8 75.8 63.5 74.1 62.7 73 61.3 71.2 59.8 69.1 58.5 67.5 57.2 66 55.9 64.6 54 62.5 52.1 60.6 50.1 58.8 48.7 57.5 46 55.4 43.4 53.4 41.6 52 40.6 51 39.8 49.7 39.6 48.9 39.6 47.1 40.1 46.1 40.6 45.2 41.3 44.2 "/>
</svg>